<?xml version="1.0" encoding="UTF-8"?>
<svg id="_图层_1" data-name="图层 1" xmlns="http://www.w3.org/2000/svg" viewBox="0 0 283.46 283.46">
  <defs>
    <style>
      .cls-1 {
        fill: #231815;
      }
    </style>
  </defs>
  <path class="cls-1" d="M195.25,123.66L143.24,30.87v-7.9c0-2.32-1.89-4.21-4.21-4.21s-4.21,1.89-4.21,4.21v7.72l-51.35,93.16,.73,.4,50.62-91.83v.64c0,2.32,1.89,4.21,4.21,4.21s4.21-1.89,4.21-4.21v-.48l51.28,91.49,.73-.41ZM139.03,19.6c1.86,0,3.37,1.51,3.37,3.37s-1.51,3.37-3.37,3.37-3.37-1.51-3.37-3.37,1.51-3.37,3.37-3.37Zm0,16.84c-1.86,0-3.37-1.51-3.37-3.37v-7.6c.77,1.04,1.99,1.72,3.37,1.72s2.61-.68,3.37-1.72v7.6c0,1.86-1.51,3.37-3.37,3.37Z"/>
  <path class="cls-1" d="M194.89,127.51c-2.01,0-3.64-1.63-3.64-3.64s1.63-3.64,3.64-3.64,3.64,1.63,3.64,3.64-1.63,3.64-3.64,3.64Zm0-6.44c-1.55,0-2.8,1.26-2.8,2.8s1.26,2.8,2.8,2.8,2.8-1.26,2.8-2.8-1.26-2.8-2.8-2.8Z"/>
  <path class="cls-1" d="M83.26,127.51c-2.01,0-3.64-1.63-3.64-3.64s1.63-3.64,3.64-3.64,3.64,1.63,3.64,3.64-1.63,3.64-3.64,3.64Zm0-6.44c-1.55,0-2.8,1.26-2.8,2.8s1.26,2.8,2.8,2.8,2.8-1.26,2.8-2.8-1.26-2.8-2.8-2.8Z"/>
  <rect class="cls-1" x="48.5" y="123.87" width="9.95" height="1.28"/>
  <rect class="cls-1" x="48.5" y="127.63" width="9.95" height="1.28"/>
  <rect class="cls-1" x="48.5" y="131.4" width="9.95" height="1.28"/>
  <path class="cls-1" d="M217.16,130.96c-1.57,0-2.86-1.28-2.86-2.86s1.28-2.86,2.86-2.86,2.86,1.28,2.86,2.86-1.28,2.86-2.86,2.86Zm0-4.87c-1.11,0-2.02,.91-2.02,2.02s.91,2.02,2.02,2.02,2.02-.91,2.02-2.02-.91-2.02-2.02-2.02Z"/>
  <path class="cls-1" d="M226.84,130.96c-1.57,0-2.86-1.28-2.86-2.86s1.28-2.86,2.86-2.86,2.86,1.28,2.86,2.86-1.28,2.86-2.86,2.86Zm0-4.87c-1.11,0-2.02,.91-2.02,2.02s.91,2.02,2.02,2.02,2.02-.91,2.02-2.02-.91-2.02-2.02-2.02Z"/>
  <polygon class="cls-1" points="102.49 194 102.49 177.56 87.38 194 102.49 194"/>
  <polygon class="cls-1" points="184.99 194 184.99 177.56 169.88 194 184.99 194"/>
  <path class="cls-1" d="M145.88,178.42c-.77-.96-1.85-1.72-3.23-2.28-1.39-.56-2.9-.86-4.56-.89-1.73,0-3.3,.37-4.7,1.12-1.4,.75-2.47,1.8-3.2,3.14-.5,.85-.91,2.07-1.24,3.66-.33,1.6-.49,3.14-.49,4.64,0,1.73,.17,3.46,.52,5.19,.35,1.73,.77,3.08,1.27,4.04,1.5,2.81,4.38,4.21,8.65,4.21,2.35,0,4.15-.48,5.42-1.44,1.77-1.31,2.92-3.25,3.46-5.83,.42-2,.63-4.02,.63-6.06s-.23-3.8-.69-5.51c-.46-1.71-1.08-3.05-1.85-4.01Z"/>
  <path class="cls-1" d="M237.47,115.53v-.33H40.63v144.13h.32l11.08,5.33,.09,.04,190.3-.93h.42V127.09l-5.37-11.56Zm4.53,11.65v18.72l-4.53-5.71v-22.69l4.53,9.68ZM41.46,236.75H236.63v21.75H41.46v-21.75Zm74.3-42.75v6.81h-5.08v6.69h-8.19v-6.69h-24.29v-8.13l21.69-23.65h10.79v24.98h5.08Zm3.69-5.83c0-6.58,1.53-11.43,4.59-14.57,3.06-3.13,7.8-4.72,14.22-4.76,7.23,0,12.35,1.92,15.35,5.77,2.54,3.27,3.81,7.83,3.81,13.67,0,6.96-1.67,12.04-5.02,15.23-3.04,2.81-7.41,4.21-13.1,4.21-7.62,0-13.04-2.1-16.27-6.29-2.39-3.15-3.58-7.58-3.58-13.27Zm78.81,5.83v6.81h-5.08v6.69h-8.19v-6.69h-24.29v-8.13l21.69-23.65h10.79v24.98h5.08Zm38.37-77.96v23.62H41.46v-23.62H236.63ZM52.31,263.87l-9.43-4.53H237.47v-22.06l4.53,5.71v19.95l-189.69,.93Z"/>
</svg>