<svg width="30" height="31" viewBox="0 0 30 31" fill="none" xmlns="http://www.w3.org/2000/svg">
<path d="M6 2.7167C6 1.21631 4.65685 0 3 0C1.34315 0 0 1.21631 0 2.7167V21.2833C0 22.7837 1.34315 24 3 24C4.65685 24 6 22.7837 6 21.2833V2.7167Z" fill="#7951F9"/>
<path d="M18 9.71669C18 8.21631 16.6569 7 15 7C13.3431 7 12 8.21631 12 9.71669V28.2833C12 29.7837 13.3431 31 15 31C16.6569 31 18 29.7837 18 28.2833V9.71669Z" fill="#7951F9"/>
<path d="M30 2.71669C30 1.21631 28.6569 0 27 0C25.3431 0 24 1.21631 24 2.71669V21.2833C24 22.7837 25.3431 24 27 24C28.6569 24 30 22.7837 30 21.2833V2.71669Z" fill="#7951F9"/>
</svg>
