<svg width="144" height="20" viewBox="0 0 144 20" fill="none" xmlns="http://www.w3.org/2000/svg">
<path d="M21.4249 19.7433H18.0616V8.78049L12.1438 19.1913C11.9983 19.4566 11.7929 19.6577 11.5276 19.7946C11.2709 19.9315 10.9927 20 10.6932 20C10.4022 20 10.1284 19.9315 9.87163 19.7946C9.62345 19.6577 9.42662 19.4566 9.28113 19.1913L3.33761 8.78049V19.7433H0V2.75995C0 2.37484 0.111254 2.03252 0.333761 1.73299C0.564827 1.43346 0.864356 1.23235 1.23235 1.12965C1.41207 1.08686 1.59178 1.07403 1.7715 1.09114C1.95122 1.0997 2.12238 1.13821 2.28498 1.20668C2.45614 1.26658 2.61018 1.35644 2.74711 1.47625C2.88404 1.58751 2.99957 1.72443 3.09371 1.88703L10.6932 15.0963L18.2927 1.88703C18.4895 1.56183 18.7591 1.33077 19.1014 1.19384C19.4523 1.05691 19.816 1.03552 20.1926 1.12965C20.552 1.23235 20.8472 1.43346 21.0783 1.73299C21.3094 2.03252 21.4249 2.37484 21.4249 2.75995V19.7433Z" fill="#545454"/>
<path d="M39.1913 15.1476C39.1913 15.6098 39.11 16.1104 38.9474 16.6496C38.7848 17.1801 38.5195 17.6765 38.1515 18.1386C37.792 18.5922 37.3171 18.973 36.7266 19.2811C36.1446 19.5892 35.4343 19.7433 34.5956 19.7433H28.5751C28.113 19.7433 27.6123 19.662 27.0732 19.4994C26.5426 19.3368 26.0462 19.0757 25.5841 18.7163C25.1305 18.3483 24.7497 17.8733 24.4416 17.2914C24.1335 16.7009 23.9795 15.9863 23.9795 15.1476C23.9795 14.6855 24.0608 14.1849 24.2234 13.6457C24.386 13.1065 24.647 12.6102 25.0064 12.1566C25.3744 11.6945 25.8494 11.3094 26.4313 11.0013C27.0218 10.6932 27.7364 10.5392 28.5751 10.5392H34.5956V13.7227H28.5751C28.1215 13.7227 27.7706 13.8639 27.5225 14.1463C27.2743 14.4202 27.1502 14.7625 27.1502 15.1733C27.1502 15.6098 27.2914 15.9521 27.5738 16.2003C27.8648 16.4399 28.2071 16.5597 28.6008 16.5597H34.5956C35.0492 16.5597 35.4001 16.4228 35.6483 16.1489C35.8965 15.8751 36.0205 15.5327 36.0205 15.122V10.4621C36.0205 10.0257 35.8836 9.67908 35.6098 9.42234C35.3445 9.1656 35.0064 9.03723 34.5956 9.03723H27.2657V5.8665H34.5956C35.0578 5.8665 35.5541 5.9478 36.0847 6.1104C36.6239 6.273 37.1202 6.5383 37.5738 6.90629C38.0359 7.26573 38.4211 7.74069 38.7291 8.33119C39.0372 8.91314 39.1913 9.62345 39.1913 10.4621V15.1476Z" fill="#545454"/>
<path d="M57.1374 15.0578C57.1374 15.6312 57.0646 16.1489 56.9191 16.611C56.7736 17.0646 56.5811 17.4668 56.3415 17.8177C56.1018 18.16 55.8237 18.4553 55.5071 18.7035C55.1904 18.9431 54.8567 19.1399 54.5058 19.294C54.1635 19.448 53.8126 19.5635 53.4532 19.6406C53.1023 19.709 52.7685 19.7433 52.4519 19.7433H46.4313C45.9692 19.7433 45.4643 19.662 44.9166 19.4994C44.3689 19.3368 43.8597 19.0715 43.389 18.7035C42.9268 18.3269 42.5374 17.8434 42.2208 17.2529C41.9127 16.6538 41.7587 15.9221 41.7587 15.0578V10.5392C41.7587 9.68335 41.9127 8.96021 42.2208 8.36971C42.5374 7.77065 42.9268 7.28712 43.389 6.91913C43.8597 6.54258 44.3689 6.273 44.9166 6.1104C45.4643 5.9478 45.9692 5.8665 46.4313 5.8665H52.4519C53.3077 5.8665 54.0351 6.02054 54.6342 6.32863C55.2332 6.63671 55.7167 7.0261 56.0847 7.49679C56.4527 7.95892 56.718 8.46384 56.8806 9.01155C57.0518 9.55926 57.1374 10.0685 57.1374 10.5392V15.0578ZM53.7997 10.5648C53.7997 10.1027 53.6842 9.76038 53.4532 9.53787C53.2221 9.31536 52.8883 9.20411 52.4519 9.20411H46.457C46.012 9.20411 45.6739 9.31964 45.4429 9.55071C45.2118 9.77321 45.0963 10.1027 45.0963 10.5392V15.0578C45.0963 15.4942 45.2118 15.828 45.4429 16.059C45.6739 16.2901 46.012 16.4056 46.457 16.4056H52.4519C52.9054 16.4056 53.2435 16.2901 53.466 16.059C53.6885 15.828 53.7997 15.4942 53.7997 15.0578V10.5648Z" fill="#545454"/>
<path d="M74.9166 10.4621C74.9166 10.9243 74.8353 11.4249 74.6727 11.9641C74.5101 12.4947 74.2448 12.991 73.8768 13.4531C73.5173 13.9067 73.0424 14.2875 72.4519 14.5956C71.8699 14.9037 71.1596 15.0578 70.3209 15.0578H64.3004V11.887H70.3209C70.7745 11.887 71.1254 11.7501 71.3736 11.4763C71.6217 11.1938 71.7458 10.8472 71.7458 10.4365C71.7458 10 71.6046 9.65768 71.3222 9.4095C71.0484 9.16132 70.7146 9.03723 70.3209 9.03723H64.3004C63.8468 9.03723 63.4959 9.17843 63.2478 9.46085C62.9996 9.7347 62.8755 10.077 62.8755 10.4878V15.1476C62.8755 15.5926 63.0124 15.9392 63.2863 16.1874C63.5687 16.4356 63.9153 16.5597 64.3261 16.5597H70.3209V19.7433H64.3004C63.8383 19.7433 63.3376 19.662 62.7985 19.4994C62.2679 19.3368 61.7715 19.0757 61.3094 18.7163C60.8558 18.3483 60.475 17.8733 60.1669 17.2914C59.8588 16.7009 59.7048 15.9863 59.7048 15.1476V10.4621C59.7048 10 59.7861 9.50364 59.9487 8.97304C60.1113 8.43389 60.3723 7.93753 60.7317 7.48395C61.0997 7.02182 61.5747 6.63671 62.1566 6.32863C62.7471 6.02054 63.4617 5.8665 64.3004 5.8665H70.3209C70.7831 5.8665 71.2794 5.9478 71.81 6.1104C72.3492 6.273 72.8455 6.5383 73.2991 6.90629C73.7612 7.26573 74.1463 7.74069 74.4544 8.33119C74.7625 8.91314 74.9166 9.62345 74.9166 10.4621Z" fill="#545454"/>
<path d="M89.3068 9.20411H81.7972C81.3436 9.20411 81.0013 9.31964 80.7702 9.55071C80.5392 9.77321 80.4236 10.1027 80.4236 10.5392V19.7433H77.086V10.5392C77.086 9.96577 77.1588 9.45229 77.3042 8.99872C77.4497 8.54514 77.6423 8.1472 77.8819 7.80488C78.1301 7.454 78.4125 7.15875 78.7291 6.91913C79.0458 6.67095 79.3753 6.46983 79.7176 6.31579C80.0685 6.16175 80.4193 6.05049 80.7702 5.98203C81.1297 5.90501 81.4634 5.8665 81.7715 5.8665H89.3068V9.20411Z" fill="#545454"/>
<path d="M106.688 15.0578C106.688 15.6312 106.615 16.1489 106.47 16.611C106.324 17.0646 106.132 17.4668 105.892 17.8177C105.653 18.16 105.374 18.4553 105.058 18.7035C104.741 18.9431 104.407 19.1399 104.056 19.294C103.714 19.448 103.363 19.5635 103.004 19.6406C102.653 19.709 102.319 19.7433 102.003 19.7433H95.982C95.4087 19.7433 94.8952 19.6705 94.4416 19.525C93.988 19.3795 93.5858 19.187 93.2349 18.9474C92.8926 18.6992 92.5974 18.4168 92.3492 18.1001C92.1096 17.7835 91.9127 17.454 91.7587 17.1117C91.6046 16.7608 91.4891 16.4099 91.4121 16.059C91.3436 15.6996 91.3094 15.3659 91.3094 15.0578V10.5392C91.3094 9.68335 91.4634 8.96021 91.7715 8.36971C92.0882 7.77065 92.4775 7.28712 92.9397 6.91913C93.4104 6.54258 93.9196 6.273 94.4673 6.1104C95.015 5.9478 95.5199 5.8665 95.982 5.8665H102.003V9.20411H96.0077C95.5627 9.20411 95.2247 9.31964 94.9936 9.55071C94.7625 9.77321 94.647 10.1027 94.647 10.5392V15.0321C94.647 15.4857 94.7582 15.828 94.9808 16.059C95.2118 16.2901 95.5456 16.4056 95.982 16.4056H102.003C102.456 16.4056 102.794 16.2901 103.017 16.059C103.239 15.828 103.35 15.4942 103.35 15.0578V0H106.688V15.0578Z" fill="#545454"/>
<path d="M125.045 18.0616C125.045 18.3012 125.002 18.5237 124.917 18.7291C124.831 18.9345 124.711 19.1143 124.557 19.2683C124.412 19.4138 124.236 19.5293 124.031 19.6149C123.834 19.7005 123.62 19.7433 123.389 19.7433H115.841C115.43 19.7433 114.989 19.6962 114.519 19.6021C114.056 19.5079 113.599 19.3582 113.145 19.1528C112.691 18.9388 112.251 18.6735 111.823 18.3569C111.404 18.0317 111.036 17.6423 110.719 17.1887C110.402 16.7266 110.145 16.196 109.949 15.5969C109.76 14.9979 109.666 14.3218 109.666 13.5687V5.8665H113.004V13.5687C113.004 14.0051 113.077 14.3988 113.222 14.7497C113.376 15.092 113.582 15.3872 113.838 15.6354C114.095 15.8836 114.395 16.0762 114.737 16.2131C115.088 16.3415 115.464 16.4056 115.867 16.4056H121.707V5.8665H125.045V18.0616Z" fill="#545454"/>
<path d="M143.273 15.0578C143.273 15.6312 143.201 16.1489 143.055 16.611C142.91 17.0646 142.717 17.4668 142.478 17.8177C142.238 18.16 141.96 18.4553 141.643 18.7035C141.327 18.9431 140.993 19.1399 140.642 19.294C140.3 19.448 139.949 19.5635 139.589 19.6406C139.238 19.709 138.905 19.7433 138.588 19.7433H132.567C132.105 19.7433 131.6 19.662 131.053 19.4994C130.505 19.3368 129.996 19.0715 129.525 18.7035C129.063 18.3269 128.674 17.8434 128.357 17.2529C128.049 16.6538 127.895 15.9221 127.895 15.0578V10.5392C127.895 9.68335 128.049 8.96021 128.357 8.36971C128.674 7.77065 129.063 7.28712 129.525 6.91913C129.996 6.54258 130.505 6.273 131.053 6.1104C131.6 5.9478 132.105 5.8665 132.567 5.8665H138.588C139.444 5.8665 140.171 6.02054 140.77 6.32863C141.369 6.63671 141.853 7.0261 142.221 7.49679C142.589 7.95892 142.854 8.46384 143.017 9.01155C143.188 9.55926 143.273 10.0685 143.273 10.5392V15.0578ZM139.936 10.5648C139.936 10.1027 139.82 9.76038 139.589 9.53787C139.358 9.31536 139.024 9.20411 138.588 9.20411H132.593C132.148 9.20411 131.81 9.31964 131.579 9.55071C131.348 9.77321 131.232 10.1027 131.232 10.5392V15.0578C131.232 15.4942 131.348 15.828 131.579 16.059C131.81 16.2901 132.148 16.4056 132.593 16.4056H138.588C139.042 16.4056 139.38 16.2901 139.602 16.059C139.825 15.828 139.936 15.4942 139.936 15.0578V10.5648Z" fill="#545454"/>
</svg>
