<svg width="583" height="114" viewBox="0 0 583 114" fill="none" xmlns="http://www.w3.org/2000/svg">
<path d="M80.44 44.66L55.66 112.64H51.58L28.27 44.34L17.02 111.34H0.22998L16.87 9.78H29.26L55.02 77.75L79.63 9.78H92.18L107.01 111.33H90.22L80.44 44.66Z" fill="white"/>
<path d="M175.96 111.34H160.47V105.47C155.91 110.8 149.11 113.46 140.09 113.46C131.07 113.46 123.87 109.98 118.49 103.03C113.11 96.08 110.42 87.93 110.42 78.58C110.42 69.23 113.16 61.28 118.65 54.7C124.14 48.13 131.17 44.84 139.76 44.84C148.89 44.84 155.79 47.56 160.46 52.99V46.96H175.95V111.34H175.96ZM162.27 79.06C162.27 73.08 160.58 68.17 157.22 64.31C153.85 60.45 149.53 58.52 144.26 58.52C138.99 58.52 134.7 60.39 131.38 64.14C128.06 67.89 126.41 72.86 126.41 79.06C126.41 85.26 128.09 90.25 131.46 94.06C134.83 97.87 139.17 99.77 144.5 99.77C149.83 99.77 154.12 97.92 157.38 94.23C160.64 90.54 162.27 85.48 162.27 79.07V79.06Z" fill="white"/>
<path d="M252.41 79.06C252.41 89.17 249.31 97.43 243.12 103.84C236.93 110.25 228.8 113.46 218.75 113.46C208.7 113.46 200.52 110.26 194.22 103.84C187.92 97.43 184.77 89.2 184.77 79.14C184.77 69.08 187.87 60.86 194.06 54.44C200.25 48.03 208.4 44.82 218.51 44.82C228.62 44.82 236.79 48 243.04 54.36C249.29 60.72 252.41 68.95 252.41 79.06ZM200.74 79.3C200.74 85.33 202.42 90.25 205.79 94.05C209.16 97.86 213.5 99.76 218.83 99.76C224.16 99.76 228.42 97.72 231.63 93.65C234.83 89.57 236.44 84.74 236.44 79.14C236.44 73.54 234.81 68.71 231.55 64.63C228.29 60.55 224.02 58.52 218.75 58.52C213.48 58.52 209.16 60.48 205.79 64.39C202.42 68.3 200.74 73.27 200.74 79.31V79.3Z" fill="white"/>
<path d="M273.28 80.69C273.28 86.88 274.64 91.99 277.36 96.01C280.07 100.03 283.82 102.04 288.61 102.04C296.11 102.04 300.89 98.35 302.95 90.96L317.95 93.4C313.06 106.77 303.28 113.45 288.61 113.45C278.83 113.45 271.03 110.33 265.22 104.08C259.41 97.83 256.5 89.71 256.5 79.71C256.5 69.17 259.3 60.72 264.9 54.36C270.5 48 278.1 44.82 287.72 44.82C297.34 44.82 304.84 47.84 310.22 53.87C315.6 59.9 318.29 68.13 318.29 78.57V80.69H273.3H273.28ZM303.6 71.89C303.6 67.44 302.22 63.52 299.44 60.15C296.67 56.78 293.08 55.1 288.68 55.1C284.28 55.1 280.69 56.87 277.92 60.4C275.15 63.93 273.76 67.76 273.76 71.89H303.59H303.6Z" fill="white"/>
<path d="M342.55 53.63C346.57 47.76 352.87 44.83 361.46 44.83C364.17 44.83 366.68 45.37 368.96 46.46L367 60.81C364.61 59.29 362 58.53 359.18 58.53C348.1 58.53 342.55 66.46 342.55 82.33V111.35H326.74V46.95H342.55V53.63Z" fill="white"/>
<path d="M420.15 105.3C415.91 110.74 409.23 113.45 400.1 113.45C390.97 113.45 383.72 109.97 378.34 103.02C372.96 96.07 370.27 87.92 370.27 78.57C370.27 69.22 373.01 61.27 378.5 54.69C383.99 48.12 391.02 44.83 399.61 44.83C408.74 44.83 415.48 47.49 419.82 52.82L420.15 0.0100098H435.96V111.34H420.15V105.31V105.3ZM421.94 79.06C421.94 73.41 420.2 68.57 416.72 64.55C413.24 60.53 409.06 58.52 404.17 58.52C399.28 58.52 395.07 60.5 391.54 64.47C388.01 68.44 386.24 73.33 386.24 79.14C386.24 84.95 387.95 89.85 391.37 93.81C394.79 97.78 399.11 99.76 404.33 99.76C409.55 99.76 413.78 97.83 417.04 93.97C420.3 90.11 421.93 85.14 421.93 79.05L421.94 79.06Z" fill="white"/>
<path d="M464.48 46.95V81.83C464.48 94.33 468.83 100.58 477.52 100.58C486.21 100.58 490.56 94.33 490.56 81.83V46.95H506.37V84.77C506.37 103.9 496.75 113.46 477.52 113.46C458.29 113.46 448.67 103.9 448.67 84.77V46.95H464.48Z" fill="white"/>
<path d="M582.5 79.06C582.5 89.17 579.4 97.43 573.21 103.84C567.02 110.25 558.89 113.46 548.84 113.46C538.79 113.46 530.61 110.26 524.31 103.84C518.01 97.43 514.86 89.2 514.86 79.14C514.86 69.08 517.96 60.86 524.15 54.44C530.34 48.03 538.49 44.82 548.6 44.82C558.71 44.82 566.88 48 573.13 54.36C579.38 60.72 582.5 68.95 582.5 79.06ZM530.83 79.3C530.83 85.33 532.51 90.25 535.88 94.05C539.25 97.86 543.59 99.76 548.92 99.76C554.25 99.76 558.51 97.72 561.72 93.65C564.92 89.57 566.53 84.74 566.53 79.14C566.53 73.54 564.9 68.71 561.64 64.63C558.38 60.55 554.11 58.52 548.84 58.52C543.57 58.52 539.25 60.48 535.88 64.39C532.51 68.3 530.83 73.27 530.83 79.31V79.3Z" fill="white"/>
</svg>
