<svg width="160" height="128" viewBox="0 0 160 128" fill="none" xmlns="http://www.w3.org/2000/svg">
<rect width="160" height="128" fill="white"/>
<path fill-rule="evenodd" clip-rule="evenodd" d="M132.48 41.6C134.954 41.6 136.96 43.6058 136.96 46.08C136.96 48.5542 134.954 50.56 132.48 50.56H106.88C109.354 50.56 111.36 52.5658 111.36 55.04C111.36 57.5142 109.354 59.52 106.88 59.52H120.96C123.434 59.52 125.44 61.5258 125.44 64C125.44 66.4742 123.434 68.48 120.96 68.48H114.449C111.329 68.48 108.8 70.4858 108.8 72.96C108.8 74.6095 110.08 76.1028 112.64 77.44C115.114 77.44 117.12 79.4458 117.12 81.92C117.12 84.3942 115.114 86.4 112.64 86.4H59.52C57.0458 86.4 55.04 84.3942 55.04 81.92C55.04 79.4458 57.0458 77.44 59.52 77.44H34.56C32.0858 77.44 30.08 75.4342 30.08 72.96C30.08 70.4858 32.0858 68.48 34.56 68.48H60.16C62.6342 68.48 64.64 66.4742 64.64 64C64.64 61.5258 62.6342 59.52 60.16 59.52H44.16C41.6858 59.52 39.68 57.5142 39.68 55.04C39.68 52.5658 41.6858 50.56 44.16 50.56H69.76C67.2858 50.56 65.28 48.5542 65.28 46.08C65.28 43.6058 67.2858 41.6 69.76 41.6H132.48ZM132.48 59.52C134.954 59.52 136.96 61.5258 136.96 64C136.96 66.4742 134.954 68.48 132.48 68.48C130.006 68.48 128 66.4742 128 64C128 61.5258 130.006 59.52 132.48 59.52Z" fill="#F3F7FF"/>
<path fill-rule="evenodd" clip-rule="evenodd" d="M98.35 40.96L104.303 84.3794L104.838 88.7354C105.01 90.1387 104.012 91.416 102.609 91.5883L65.1306 96.1901C63.7273 96.3624 62.45 95.3645 62.2777 93.9612L56.5076 46.9675C56.4214 46.2659 56.9204 45.6272 57.6221 45.5411C57.6265 45.5405 57.6309 45.54 57.6354 45.5395L60.7447 45.1907M63.259 44.9087L66.1947 44.5794L63.259 44.9087Z" fill="white"/>
<path d="M99.1426 40.8513C99.0826 40.4136 98.6791 40.1074 98.2413 40.1674C97.8036 40.2275 97.4974 40.631 97.5574 41.0687L99.1426 40.8513ZM104.303 84.3794L105.097 84.2819L105.096 84.2707L104.303 84.3794ZM104.838 88.7354L105.632 88.6379L104.838 88.7354ZM102.609 91.5883L102.707 92.3823L102.609 91.5883ZM65.1306 96.1901L65.2281 96.9841L65.1306 96.1901ZM62.2777 93.9612L63.0717 93.8637L62.2777 93.9612ZM57.6354 45.5395L57.7245 46.3345L57.6354 45.5395ZM60.8339 45.9858C61.273 45.9365 61.589 45.5406 61.5397 45.1016C61.4905 44.6625 61.0946 44.3465 60.6555 44.3957L60.8339 45.9858ZM63.1698 44.1137C62.7307 44.1629 62.4147 44.5588 62.464 44.9979C62.5132 45.4369 62.9091 45.753 63.3482 45.7037L63.1698 44.1137ZM66.2839 45.3744C66.7229 45.3251 67.039 44.9293 66.9897 44.4902C66.9405 44.0511 66.5446 43.7351 66.1055 43.7844L66.2839 45.3744ZM97.5574 41.0687L103.511 84.488L105.096 84.2707L99.1426 40.8513L97.5574 41.0687ZM103.509 84.4769L104.044 88.8329L105.632 88.6379L105.097 84.2819L103.509 84.4769ZM104.044 88.8329C104.162 89.7977 103.476 90.6758 102.512 90.7943L102.707 92.3823C104.548 92.1562 105.858 90.4798 105.632 88.6379L104.044 88.8329ZM102.512 90.7943L65.0331 95.3961L65.2281 96.9841L102.707 92.3823L102.512 90.7943ZM65.0331 95.3961C64.0683 95.5145 63.1902 94.8284 63.0717 93.8637L61.4836 94.0587C61.7098 95.9005 63.3862 97.2103 65.2281 96.9841L65.0331 95.3961ZM63.0717 93.8637L57.3016 46.87L55.7135 47.065L61.4836 94.0587L63.0717 93.8637ZM57.3016 46.87C57.2693 46.6069 57.4564 46.3674 57.7195 46.3351L57.5246 44.7471C56.3844 44.8871 55.5736 45.9248 55.7135 47.065L57.3016 46.87ZM57.7195 46.3351C57.7212 46.3349 57.7229 46.3347 57.7245 46.3345L57.5462 44.7445C57.539 44.7453 57.5318 44.7462 57.5246 44.7471L57.7195 46.3351ZM57.7245 46.3345L60.8339 45.9858L60.6555 44.3957L57.5462 44.7445L57.7245 46.3345ZM63.3482 45.7037L66.2839 45.3744L66.1055 43.7844L63.1698 44.1137L63.3482 45.7037Z" fill="#7951F9"/>
<path fill-rule="evenodd" clip-rule="evenodd" d="M96.7296 43.6923L102.118 83.0419L102.603 86.9895C102.759 88.2613 101.867 89.4173 100.61 89.5716L67.0473 93.6926C65.7906 93.8469 64.6452 92.9411 64.4891 91.6693L59.2731 49.1883C59.1869 48.4867 59.6859 47.848 60.3875 47.7619L64.5396 47.2521" fill="#E8F0FE"/>
<path d="M69.07 34.56C69.07 33.588 69.858 32.8 70.83 32.8H99.9863C100.453 32.8 100.9 32.9853 101.23 33.3151L109.834 41.9135C110.164 42.2436 110.35 42.6914 110.35 43.1583V83.2C110.35 84.172 109.562 84.96 108.59 84.96H70.83C69.858 84.96 69.07 84.172 69.07 83.2V34.56Z" fill="white" stroke="#7951F9" stroke-width="1.6"/>
<path d="M100.27 33.5378V40.96C100.27 42.0204 101.13 42.88 102.19 42.88H107.267" stroke="#7951F9" stroke-width="1.6" stroke-linecap="round" stroke-linejoin="round"/>
<path d="M75.52 75.52H92.16M75.52 42.88H92.16H75.52ZM75.52 50.56H103.04H75.52ZM75.52 58.88H103.04H75.52ZM75.52 67.2H103.04H75.52Z" stroke="#7951F9" stroke-width="1.6" stroke-linecap="round" stroke-linejoin="round"/>
</svg>
