<?xml version="1.0" standalone="no"?><!DOCTYPE svg PUBLIC "-//W3C//DTD SVG 1.1//EN" "http://www.w3.org/Graphics/SVG/1.1/DTD/svg11.dtd"><svg t="1691214766044" class="icon" viewBox="0 0 1630 1024" version="1.1" xmlns="http://www.w3.org/2000/svg" p-id="3678" xmlns:xlink="http://www.w3.org/1999/xlink" width="318.359375" height="200"><path d="M324.266667 6.409481h403.911111c56.888889 0 91.022222 45.511111 77.748148 102.4l-187.733333 802.133334c-13.274074 56.888889-70.162963 102.4-127.051852 102.4H87.22963c-56.888889 0-91.022222-45.511111-77.748149-102.4l187.733334-802.133334c13.274074-56.888889 70.162963-102.4 127.051852-102.4" fill="#DE3232" p-id="3679"></path><path d="M694.044444 6.409481h464.592593c56.888889 0 30.340741 45.511111 17.066667 102.4l-187.733334 802.133334c-13.274074 56.888889-9.481481 102.4-66.37037 102.4H458.903704c-56.888889 0-91.022222-45.511111-77.748148-102.4l187.733333-802.133334c13.274074-56.888889 68.266667-102.4 125.155555-102.4" fill="#004889" p-id="3680"></path><path d="M1141.57037 6.409481h403.911111c56.888889 0 91.022222 45.511111 77.748149 102.4l-187.733334 802.133334c-13.274074 56.888889-70.162963 102.4-127.051852 102.4H904.533333c-56.888889 0-91.022222-45.511111-77.748148-102.4l187.733334-802.133334c13.274074-56.888889 70.162963-102.4 127.051851-102.4" fill="#007F89" p-id="3681"></path><path d="M1206.727111 599.703704l-49.303704 161.185185h13.274074l-9.481481 34.133333h-13.274074l-3.792593 11.377778h-47.407407l3.792593-11.377778h-94.814815l9.481481-30.340741h9.481482l49.303703-164.977777 9.481482-34.133334h47.407407l-5.688889 17.066667s13.274074-9.481481 24.651852-11.377778c11.377778-3.792593 81.540741-3.792593 81.540741-3.792592l-9.481482 32.237037h-15.17037z m-83.437037 0l-13.274074 41.718518s13.274074-5.688889 22.755556-7.585185c7.585185-1.896296 18.962963-1.896296 18.962963-1.896296l9.481481-30.340741h-37.925926z m-18.962963 62.577777l-13.274074 43.614815s15.17037-7.585185 22.755556-9.481481c7.585185-1.896296 18.962963-3.792593 18.962963-3.792593l9.481481-30.340741h-37.925926z m-30.340741 100.503704h37.925926l11.377778-36.029629h-37.925926l-11.377778 36.029629z" fill="#FEFEFE" p-id="3682"></path><path d="M1229.482667 567.466667h51.2v18.962963c0 3.792593 1.896296 3.792593 7.585185 3.792592h9.481481l-9.481481 30.340741h-28.444445c-24.651852 1.896296-32.237037-7.585185-32.237037-18.962963l1.896297-34.133333zM1235.171556 715.377778h-49.303704l7.585185-28.444445h54.992593l7.585185-24.651852h-54.992593l9.481482-32.237037h153.6l-9.481482 32.237037h-49.303703l-7.585186 24.651852h51.2l-7.585185 28.444445h-54.992592l-9.481482 11.377778h22.755556l5.688889 34.133333c0 3.792593 0 5.688889 1.896296 7.585185 1.896296 1.896296 7.585185 1.896296 11.377778 1.896296h7.585185l-9.481482 34.133334h-28.444444c-5.688889 0-9.481481-3.792593-13.274074-5.688889-3.792593-1.896296-7.585185-5.688889-9.481482-11.377778l-5.688889-34.133333-24.651851 34.133333c-7.585185 11.377778-18.962963 18.962963-37.925926 18.962963h-36.02963l9.481481-30.340741h13.274075c3.792593 0 7.585185-1.896296 9.481481-1.896296 1.896296-1.896296 5.688889-1.896296 7.585185-5.688889l34.133334-53.096296zM702.312296 639.525926h128.948148l-9.481481 30.340741h-51.2l-7.585185 26.548148h53.096296l-9.481481 32.237037h-53.096297l-13.274074 41.718518c-1.896296 3.792593 13.274074 5.688889 17.066667 5.688889l26.548148-3.792592-11.377778 34.133333h-58.785185c-5.688889 0-7.585185 0-13.274074-1.896296-5.688889-1.896296-7.585185-3.792593-9.481481-7.585185-1.896296-3.792593-5.688889-5.688889-3.792593-13.274075l17.066667-56.888888h-28.444445l9.481482-32.237037h30.34074l7.585186-26.548149h-28.444445l7.585185-28.444444zM789.541926 584.533333h53.096296l-11.377778 30.340741h-72.059259l-7.585185 7.585185c-3.792593 3.792593-3.792593 1.896296-9.481481 3.792593-3.792593 1.896296-13.274074 5.688889-24.651852 5.688889h-22.755556l9.481482-30.340741h7.585185c5.688889 0 9.481481 0 11.377778-1.896296 1.896296-1.896296 5.688889-3.792593 7.585185-9.481482l13.274074-24.651852h53.096296l-7.585185 18.962963zM863.497481 567.466667h45.511112l-5.688889 20.859259s13.274074-11.377778 24.651852-15.17037c9.481481-3.792593 32.237037-7.585185 32.237037-7.585186h72.059259l-24.651852 81.540741c-3.792593 13.274074-9.481481 22.755556-11.377778 26.548148-1.896296 3.792593-5.688889 7.585185-11.377778 11.377778-5.688889 3.792593-11.377778 5.688889-17.066666 5.688889h-92.918519l-18.962963 64.474074c-1.896296 5.688889-1.896296 9.481481-1.896296 11.377778 1.896296 1.896296 3.792593 3.792593 7.585185 3.792592l30.340741-3.792592-11.377778 36.029629h-58.785185c-5.688889 0-11.377778 0-15.17037-3.792592-3.792593-3.792593-7.585185-5.688889-7.585186-9.481482s1.896296-9.481481 3.792593-17.066666l60.681481-204.8z m96.711112 81.54074h-73.955556l-3.792593 15.170371h72.05926l5.688889-15.170371z m-70.162963-13.274074s15.17037-13.274074 39.822222-17.066666c5.688889-1.896296 41.718519 0 41.718518 0l5.688889-17.066667h-73.955555l-13.274074 34.133333z" fill="#FEFEFE" p-id="3683"></path><path d="M996.238222 700.207407l-3.792592 18.962963c-1.896296 5.688889-3.792593 11.377778-7.585186 15.170371-5.688889 3.792593-11.377778 7.585185-24.651851 7.585185l-24.651852 1.896296v22.755556c0 5.688889 1.896296 5.688889 1.896296 7.585185 1.896296 1.896296 1.896296 1.896296 3.792593 1.896296h7.585185l24.651852-1.896296-9.481482 32.237037h-26.548148c-18.962963 0-34.133333 0-37.925926-3.792593-3.792593-3.792593-5.688889-5.688889-5.688889-13.274074l1.896297-87.229629h43.614814v17.066666h11.377778c3.792593 0 5.688889 0 7.585185-1.896296l3.792593-3.792593 3.792592-13.274074h30.340741zM370.460444 264.059259c0 5.688889-28.444444 134.637037-28.444444 134.637037-5.688889 26.548148-9.481481 45.511111-24.651852 56.888889-9.481481 7.585185-18.962963 9.481481-30.340741 9.481482-18.962963 0-28.444444-9.481481-30.34074-26.548148v-5.688889l5.688889-34.133334s30.340741-117.57037 34.133333-132.74074v-1.896297h-68.266667c0 1.896296-1.896296 7.585185-1.896296 7.585185l-30.340741 132.740741-3.792592 11.377778-5.688889 36.02963c0 11.377778 1.896296 18.962963 5.688889 26.548148 13.274074 24.651852 53.096296 26.548148 75.851851 26.548148 28.444444 0 54.992593-5.688889 73.955556-17.066667 32.237037-18.962963 39.822222-47.407407 47.407407-72.059259l3.792593-13.274074s30.340741-121.362963 36.02963-138.42963v-1.896296c-41.718519 1.896296-53.096296 1.896296-58.785186 1.896296M539.230815 504.888889h-51.2l-1.896296-1.896296c1.896296-9.481481 3.792593-17.066667 5.688888-26.548149l3.792593-11.377777c3.792593-18.962963 9.481481-41.718519 9.481481-47.407408 0-3.792593 1.896296-13.274074-9.481481-13.274074-5.688889 0-9.481481 1.896296-15.17037 3.792593-3.792593 9.481481-9.481481 37.925926-11.377778 51.2-5.688889 26.548148-5.688889 30.340741-9.481482 43.614815l-1.896296 1.896296h-53.096296l-1.896297-1.896296c3.792593-17.066667 7.585185-32.237037 11.377778-49.303704 9.481481-43.614815 13.274074-60.681481 15.170371-83.437037h3.792592c22.755556-3.792593 28.444444-3.792593 54.992593-9.481482l1.896296 1.896297-3.792592 13.274074c3.792593-1.896296 7.585185-5.688889 13.274074-7.585185 11.377778-5.688889 24.651852-7.585185 32.237037-7.585186 11.377778 0 22.755556 3.792593 28.444444 15.170371 5.688889 11.377778 1.896296 24.651852-5.688889 53.096296l-3.792592 13.274074c-5.688889 30.340741-7.585185 36.02963-11.377778 56.888889v5.688889zM622.667852 504.888889h-54.992593v-1.896296c3.792593-11.377778 5.688889-15.17037 5.688889-18.962963 1.896296-3.792593 3.792593-7.585185 5.688889-20.85926 3.792593-15.17037 5.688889-26.548148 7.585185-36.029629 1.896296-9.481481 1.896296-17.066667 3.792593-26.548148h1.896296c11.377778-1.896296 18.962963-1.896296 26.548148-3.792593 7.585185-1.896296 15.17037-1.896296 28.444445-5.688889v3.792593c-1.896296 9.481481-3.792593 18.962963-7.585185 28.444444-1.896296 9.481481-3.792593 18.962963-7.585186 28.444445-3.792593 20.859259-5.688889 28.444444-7.585185 34.133333-1.896296 5.688889-1.896296 7.585185-3.792592 18.962963h1.896296zM804.712296 434.725926c7.585185-30.340741 1.896296-45.511111-5.688889-54.992593-11.377778-13.274074-28.444444-17.066667-49.303703-17.066666-11.377778 0-39.822222 1.896296-60.681482 20.859259-15.17037 15.17037-22.755556 34.133333-26.548148 53.096296-3.792593 18.962963-9.481481 53.096296 22.755556 66.370371 9.481481 3.792593 24.651852 5.688889 32.237037 5.688888 22.755556 0 47.407407-5.688889 64.474074-24.651851 15.17037-17.066667 20.859259-39.822222 22.755555-49.303704m-53.096296-1.896296c-1.896296 5.688889-5.688889 24.651852-11.377778 32.237037-3.792593 5.688889-9.481481 9.481481-15.17037 9.481481-1.896296 0-11.377778 0-11.377778-15.17037 0-7.585185 1.896296-15.17037 3.792593-22.755556 5.688889-22.755556 11.377778-43.614815 28.444444-43.614815 9.481481 1.896296 11.377778 17.066667 5.688889 39.822223M1301.541926 506.785185h-54.992593l-1.896296-1.896296c5.688889-22.755556 13.274074-45.511111 17.066667-70.162963 7.585185-30.340741 9.481481-43.614815 11.377777-60.681482l1.896297-1.896296c24.651852-3.792593 30.340741-3.792593 56.888889-9.481481v1.896296c-3.792593 18.962963-9.481481 37.925926-13.274074 56.888889-9.481481 39.822222-13.274074 60.681481-17.066667 81.540741v3.792592z" fill="#FEFEFE" p-id="3684"></path><path d="M1314.816 438.518519c7.585185-30.340741-20.859259-1.896296-26.548148-13.274075-7.585185-15.17037-1.896296-47.407407-30.340741-58.785185-11.377778-3.792593-36.02963 1.896296-58.785185 20.85926-15.17037 13.274074-22.755556 34.133333-26.548148 51.2-3.792593 18.962963-9.481481 53.096296 22.755555 64.474074 9.481481 3.792593 18.962963 5.688889 28.444445 5.688888 32.237037-1.896296 54.992593-49.303704 73.955555-68.266666 11.377778-13.274074 13.274074 7.585185 17.066667-1.896296m-49.303704-1.896297c-1.896296 5.688889-5.688889 24.651852-11.377777 32.237037-3.792593 5.688889-13.274074 9.481481-18.962963 9.481482-1.896296 0-11.377778 0-11.377778-15.170371 0-7.585185 1.896296-15.17037 3.792592-22.755555 1.896296-22.755556 9.481481-41.718519 24.651852-41.718519 13.274074 0 18.962963 13.274074 13.274074 37.925926M943.141926 504.888889h-51.2v-1.896296c1.896296-9.481481 3.792593-17.066667 5.688889-26.548149l3.792592-11.377777c3.792593-18.962963 9.481481-41.718519 9.481482-47.407408 0-3.792593 1.896296-13.274074-9.481482-13.274074-5.688889 0-9.481481 1.896296-15.17037 3.792593-3.792593 9.481481-9.481481 37.925926-11.377778 51.2-5.688889 26.548148-5.688889 30.340741-9.481481 43.614815l-1.896297 1.896296h-53.096296l-1.896296-1.896296c3.792593-17.066667 7.585185-32.237037 11.377778-49.303704 9.481481-43.614815 13.274074-60.681481 15.17037-83.437037l1.896296-1.896296c22.755556-3.792593 28.444444-3.792593 54.992593-9.481482l1.896296 1.896296-3.792592 13.274074c3.792593-1.896296 7.585185-5.688889 13.274074-7.585185 11.377778-5.688889 24.651852-7.585185 32.237037-7.585185 11.377778 0 22.755556 3.792593 28.444444 15.17037 5.688889 11.377778 1.896296 24.651852-5.688889 53.096297l-3.792592 13.274074c-5.688889 30.340741-7.585185 36.02963-11.377778 56.888889v7.585185zM1142.253037 338.014815c-3.792593 15.17037-13.274074 30.340741-28.444444 36.029629-11.377778 5.688889-24.651852 5.688889-39.822223 5.688889h-9.481481v-3.792592l17.066667-72.05926v-7.585185h7.585185s34.133333 3.792593 36.029629 3.792593c15.17037 7.585185 20.859259 20.859259 17.066667 37.925926m-22.755556-73.955556h-85.333333c0 3.792593-1.896296 9.481481-1.896296 9.481482l-15.170371 72.059259s-37.925926 153.6-39.822222 161.185185h60.681482c1.896296-7.585185 11.377778-51.2 11.377778-51.2l7.585185-32.237037s1.896296-3.792593 5.688889-3.792592h3.792592c32.237037 0 70.162963 0 100.503704-20.85926 18.962963-15.17037 34.133333-36.02963 39.822222-62.577777 1.896296-5.688889 1.896296-15.17037 1.896296-22.755556 0-9.481481-1.896296-20.859259-7.585185-28.444444-17.066667-20.859259-47.407407-20.859259-81.540741-20.85926M643.527111 381.62963c13.274074-9.481481 15.17037-22.755556 3.792593-28.444445-11.377778-7.585185-32.237037-3.792593-45.511111 3.792593-13.274074 9.481481-15.17037 22.755556-3.792593 28.444444 13.274074 7.585185 32.237037 5.688889 45.511111-3.792592M1502.549333 364.562963l-1.896296-1.896296c-24.651852 5.688889-30.340741 5.688889-53.096296 9.481481l-1.896297 1.896296v1.896297c-17.066667 39.822222-17.066667 30.340741-30.34074 62.577778v-3.792593l-3.792593-66.37037-1.896296-1.896297c-26.548148 5.688889-26.548148 5.688889-51.2 9.481482l-1.896296 1.896296v1.896296c3.792593 15.17037 1.896296 11.377778 5.688888 36.02963 1.896296 11.377778 3.792593 24.651852 3.792593 36.02963 1.896296 18.962963 3.792593 30.340741 7.585185 58.785185-17.066667 26.548148-20.859259 37.925926-36.029629 60.681481l-11.377778 17.066667c-1.896296 0-1.896296 0-3.792593 1.896296-1.896296 0-3.792593 1.896296-7.585185 1.896297h-5.688889l-9.481481 30.34074h32.237037c18.962963 0 30.340741-9.481481 36.029629-20.859259l134.637037-237.037037z" fill="#FEFEFE" p-id="3685"></path></svg>